<?xml version="1.0" encoding="UTF-8" standalone="no"?>
<svg
   width="767"
   height="251"
   viewBox="0 0 767 251"
   aria-label="IVSoft monochrome wordmark (light on dark)"
   version="1.1"
   id="svg4"
   sodipodi:docname="IVSoft_4.svg"
   inkscape:version="1.3 (0e150ed6c4, 2023-07-21)"
   xmlns:inkscape="http://www.inkscape.org/namespaces/inkscape"
   xmlns:sodipodi="http://sodipodi.sourceforge.net/DTD/sodipodi-0.dtd"
   xmlns="http://www.w3.org/2000/svg"
   xmlns:svg="http://www.w3.org/2000/svg">
  <sodipodi:namedview
     id="namedview4"
     pagecolor="#ffffff"
     bordercolor="#666666"
     borderopacity="1.0"
     inkscape:showpageshadow="2"
     inkscape:pageopacity="0.0"
     inkscape:pagecheckerboard="0"
     inkscape:deskcolor="#d1d1d1"
     showguides="false"
     inkscape:lockguides="false"
     inkscape:zoom="1.0979167"
     inkscape:cx="484.55408"
     inkscape:cy="142.54269"
     inkscape:window-width="1920"
     inkscape:window-height="1017"
     inkscape:window-x="1912"
     inkscape:window-y="-8"
     inkscape:window-maximized="1"
     inkscape:current-layer="svg4" />
  <defs
     id="defs1">
    <style
       id="style1">&#10;      :root {&#10;        --brand-navy: #0F2133;&#10;        --brand-white: #FFFFFF;&#10;      }&#10;      .brand-text {&#10;        font-family: system-ui, -apple-system, &quot;Segoe UI&quot;, Roboto, Arial, sans-serif;&#10;        font-weight: 700;&#10;        letter-spacing: 0.3px;&#10;      }&#10;    </style>
  </defs>
  <path
     style="font-weight:bold;font-size:177.911px;font-family:Roboto;-inkscape-font-specification:'Roboto Bold';fill:#0f2133;stroke-width:1.58849"
     d="M 738.63016,70.720741 H 713.35081 V 93.74145 h -13.72555 v 17.80847 h 13.72555 v 47.95258 q 0,15.63671 7.03652,22.84697 7.12339,7.21026 20.24085,7.21026 4.25666,0 7.81836,-0.69497 3.64856,-0.60809 7.47087,-1.91115 l -2.08489,-18.3297 q -1.91116,0.52122 -3.38796,0.78184 -1.4768,0.17374 -3.47482,0.17374 -3.73544,0 -6.08094,-2.34551 -2.25864,-2.34551 -2.25864,-7.81835 v -47.86571 h 15.89732 V 93.74145 H 738.63016 Z M 652.80198,187.73544 h 25.36622 v -76.18552 h 18.06908 V 93.74145 H 678.1682 V 83.316978 q 0,-6.341554 3.12734,-9.729508 3.21421,-3.387953 9.38202,-3.387953 2.60612,0 4.51727,0.260612 1.99803,0.260612 4.08292,0.608094 l 2.17177,-18.850921 q -3.99605,-0.868706 -7.384,-1.303059 -3.30109,-0.521224 -6.5153,-0.521224 -16.50541,0 -25.62683,8.60019 -9.12141,8.513319 -9.12141,24.323769 V 93.74145 h -13.98617 v 17.80847 h 13.98617 z m -85.65439,-46.04142 v -1.82428 q 0,-12.4225 4.51727,-20.32772 4.60414,-7.9921 14.42052,-7.9921 9.90325,0 14.50739,7.90523 4.60414,7.90522 4.60414,20.41459 v 1.82428 q 0,12.76998 -4.60414,20.58834 -4.51727,7.81835 -14.33365,7.81835 -10.07699,0 -14.59426,-7.73148 -4.51727,-7.81836 -4.51727,-20.67521 z m -25.27935,-1.82428 v 1.82428 q 0,21.19643 11.72753,34.5745 11.81441,13.29121 32.66335,13.29121 20.76208,0 32.48961,-13.29121 11.8144,-13.37807 11.8144,-34.5745 v -1.82428 q 0,-21.10956 -11.8144,-34.48763 -11.81441,-13.378072 -32.66335,-13.378072 -20.76207,0 -32.48961,13.464942 -11.72753,13.37807 -11.72753,34.40076 z m -38.22307,14.85487 q 0,7.12339 -5.38598,11.38005 -5.29911,4.25666 -15.46297,4.25666 -11.29318,0 -17.89534,-5.2991 -6.60217,-5.29911 -6.60217,-16.50542 h -24.58438 l -0.17374,0.52122 q -0.43435,20.15398 14.15991,30.31785 14.68113,10.16386 35.09572,10.16386 20.84895,0 33.53205,-9.38203 12.68311,-9.38202 12.68311,-25.62683 0,-15.54984 -10.94569,-25.01873 -10.9457,-9.55577 -31.79464,-15.46297 -13.63869,-4.60414 -19.19841,-8.68706 -5.55972,-4.16979 -5.55972,-10.598212 0,-7.036519 5.12537,-11.553791 5.12536,-4.517271 14.50739,-4.517271 10.3376,0 16.07106,5.125366 5.73346,5.038495 5.73346,14.50739 h 24.58438 l 0.17374,-0.521223 q 0.43436,-17.20038 -12.42249,-27.798593 -12.76998,-10.598214 -33.79267,-10.598214 -19.8065,0 -32.57647,9.903249 -12.76998,9.816378 -12.76998,25.366216 0,15.462963 11.29318,24.410643 11.38004,8.94767 33.27144,15.54983 12.76998,3.90918 17.80847,8.33958 5.12537,4.4304 5.12537,11.72753 z M 367.6058,153.42155 340.24156,61.251845 H 313.48542 L 356.3995,187.73544 h 26.06118 L 425.46162,61.251845 h -26.75614 l -27.53798,92.430325 -1.4768,6.68903 h -0.52123 z m -68.19342,34.31389 V 61.251845 H 274.04616 V 187.73544 Z"
     id="text4"
     class="brand-text"
     aria-label="IVSoft" />
  <rect
     x="7.1214423"
     y="8.988615"
     width="232.57684"
     height="232.57684"
     rx="29.533567"
     ry="29.533567"
     fill="var(--brand-white)"
     stroke="var(--brand-navy)"
     stroke-width="3.6917"
     id="rect1"
     style="display:inline;fill:#0f2133;fill-opacity:1" />
  <path
     style="font-weight:bold;font-size:461.955px;line-height:1.25;font-family:Roboto;-inkscape-font-specification:'Roboto Bold';display:inline;fill:#ffffff;stroke-width:4.2859"
     d="M 144.42357,148.49713 118.05509,59.68135 H 92.272557 L 133.62506,181.56237 H 158.7379 L 200.1741,59.68135 h -25.78252 l -26.53592,89.0669 -1.42305,6.44563 h -0.50227 z M 78.711619,181.56237 V 59.68135 H 54.26845 v 121.88102 z"
     id="text2"
     aria-label="IV" />
</svg>
